<mxfile host="app.diagrams.net" agent="Mozilla/5.0 (Windows NT 10.0; Win64; x64) AppleWebKit/537.36 (KHTML, like Gecko) Chrome/131.0.0.0 Safari/537.36" version="25.0.3">
  <diagram id="C5RBs43oDa-KdzZeNtuy" name="Page-1">
    <mxGraphModel dx="1114" dy="600" grid="1" gridSize="10" guides="1" tooltips="1" connect="1" arrows="1" fold="1" page="1" pageScale="1" pageWidth="827" pageHeight="1169" math="0" shadow="0">
      <root>
        <mxCell id="WIyWlLk6GJQsqaUBKTNV-0" />
        <mxCell id="WIyWlLk6GJQsqaUBKTNV-1" parent="WIyWlLk6GJQsqaUBKTNV-0" />
        <mxCell id="GyZJKCVi4QYTE4YpRzP0-38" value="" style="edgeStyle=orthogonalEdgeStyle;rounded=0;orthogonalLoop=1;jettySize=auto;html=1;" edge="1" parent="WIyWlLk6GJQsqaUBKTNV-1" source="GyZJKCVi4QYTE4YpRzP0-39" target="GyZJKCVi4QYTE4YpRzP0-56">
          <mxGeometry relative="1" as="geometry" />
        </mxCell>
        <mxCell id="GyZJKCVi4QYTE4YpRzP0-39" value="Cancel Request" style="rounded=1;whiteSpace=wrap;html=1;fontSize=12;glass=0;strokeWidth=1;shadow=0;fillColor=#f9f7ed;strokeColor=#36393d;" vertex="1" parent="WIyWlLk6GJQsqaUBKTNV-1">
          <mxGeometry x="340.5" y="585" width="120" height="40" as="geometry" />
        </mxCell>
        <mxCell id="GyZJKCVi4QYTE4YpRzP0-40" value="Cancel Vacation Request&amp;nbsp; Flow" style="rounded=0;whiteSpace=wrap;html=1;fillColor=#d5e8d4;strokeColor=#82b366;" vertex="1" parent="WIyWlLk6GJQsqaUBKTNV-1">
          <mxGeometry x="284" width="260" height="60" as="geometry" />
        </mxCell>
        <mxCell id="GyZJKCVi4QYTE4YpRzP0-41" value="" style="edgeStyle=orthogonalEdgeStyle;rounded=0;orthogonalLoop=1;jettySize=auto;html=1;" edge="1" parent="WIyWlLk6GJQsqaUBKTNV-1" source="GyZJKCVi4QYTE4YpRzP0-45" target="GyZJKCVi4QYTE4YpRzP0-47">
          <mxGeometry relative="1" as="geometry" />
        </mxCell>
        <mxCell id="GyZJKCVi4QYTE4YpRzP0-42" value="True" style="edgeLabel;html=1;align=center;verticalAlign=middle;resizable=0;points=[];" vertex="1" connectable="0" parent="GyZJKCVi4QYTE4YpRzP0-41">
          <mxGeometry x="-0.4648" y="-1" relative="1" as="geometry">
            <mxPoint x="-28" y="-4" as="offset" />
          </mxGeometry>
        </mxCell>
        <mxCell id="GyZJKCVi4QYTE4YpRzP0-43" style="edgeStyle=orthogonalEdgeStyle;rounded=0;orthogonalLoop=1;jettySize=auto;html=1;entryX=0.5;entryY=1;entryDx=0;entryDy=0;" edge="1" parent="WIyWlLk6GJQsqaUBKTNV-1" source="GyZJKCVi4QYTE4YpRzP0-45" target="GyZJKCVi4QYTE4YpRzP0-49">
          <mxGeometry relative="1" as="geometry" />
        </mxCell>
        <mxCell id="GyZJKCVi4QYTE4YpRzP0-44" value="False" style="edgeLabel;html=1;align=center;verticalAlign=middle;resizable=0;points=[];" vertex="1" connectable="0" parent="GyZJKCVi4QYTE4YpRzP0-43">
          <mxGeometry x="-0.2832" y="-2" relative="1" as="geometry">
            <mxPoint x="27" y="-8" as="offset" />
          </mxGeometry>
        </mxCell>
        <mxCell id="GyZJKCVi4QYTE4YpRzP0-45" value="Authenticate" style="rhombus;whiteSpace=wrap;html=1;shadow=0;fontFamily=Helvetica;fontSize=12;align=center;strokeWidth=1;spacing=6;spacingTop=-4;fillColor=#dae8fc;strokeColor=#6c8ebf;" vertex="1" parent="WIyWlLk6GJQsqaUBKTNV-1">
          <mxGeometry x="350.5" y="200" width="100" height="80" as="geometry" />
        </mxCell>
        <mxCell id="GyZJKCVi4QYTE4YpRzP0-46" value="" style="edgeStyle=orthogonalEdgeStyle;rounded=0;orthogonalLoop=1;jettySize=auto;html=1;" edge="1" parent="WIyWlLk6GJQsqaUBKTNV-1" source="GyZJKCVi4QYTE4YpRzP0-47" target="GyZJKCVi4QYTE4YpRzP0-54">
          <mxGeometry relative="1" as="geometry" />
        </mxCell>
        <mxCell id="GyZJKCVi4QYTE4YpRzP0-47" value="ViewVacation Requests" style="rounded=1;whiteSpace=wrap;html=1;fontSize=12;glass=0;strokeWidth=1;shadow=0;fillColor=#f9f7ed;strokeColor=#36393d;" vertex="1" parent="WIyWlLk6GJQsqaUBKTNV-1">
          <mxGeometry x="340.5" y="310" width="120" height="40" as="geometry" />
        </mxCell>
        <mxCell id="GyZJKCVi4QYTE4YpRzP0-48" style="edgeStyle=orthogonalEdgeStyle;rounded=0;orthogonalLoop=1;jettySize=auto;html=1;" edge="1" parent="WIyWlLk6GJQsqaUBKTNV-1" source="GyZJKCVi4QYTE4YpRzP0-49" target="GyZJKCVi4QYTE4YpRzP0-45">
          <mxGeometry relative="1" as="geometry">
            <Array as="points">
              <mxPoint x="400.5" y="130" />
            </Array>
          </mxGeometry>
        </mxCell>
        <mxCell id="GyZJKCVi4QYTE4YpRzP0-49" value="Employee&amp;nbsp;&lt;div&gt;Login&lt;/div&gt;" style="ellipse;whiteSpace=wrap;html=1;fillColor=#ffe6cc;strokeColor=#d79b00;" vertex="1" parent="WIyWlLk6GJQsqaUBKTNV-1">
          <mxGeometry x="191.5" y="110" width="100" height="40" as="geometry" />
        </mxCell>
        <mxCell id="GyZJKCVi4QYTE4YpRzP0-50" style="edgeStyle=orthogonalEdgeStyle;rounded=0;orthogonalLoop=1;jettySize=auto;html=1;" edge="1" parent="WIyWlLk6GJQsqaUBKTNV-1" source="GyZJKCVi4QYTE4YpRzP0-51" target="GyZJKCVi4QYTE4YpRzP0-52">
          <mxGeometry relative="1" as="geometry" />
        </mxCell>
        <mxCell id="GyZJKCVi4QYTE4YpRzP0-51" value="Restore Vacation&amp;nbsp;&lt;span style=&quot;background-color: initial;&quot;&gt;Balance&lt;/span&gt;" style="rounded=1;whiteSpace=wrap;html=1;fillColor=#f9f7ed;strokeColor=#36393d;" vertex="1" parent="WIyWlLk6GJQsqaUBKTNV-1">
          <mxGeometry x="341.5" y="765" width="121" height="50" as="geometry" />
        </mxCell>
        <mxCell id="GyZJKCVi4QYTE4YpRzP0-52" value="Notify Manager" style="ellipse;whiteSpace=wrap;html=1;fillColor=#ffe6cc;strokeColor=#d79b00;" vertex="1" parent="WIyWlLk6GJQsqaUBKTNV-1">
          <mxGeometry x="521" y="770" width="100" height="40" as="geometry" />
        </mxCell>
        <mxCell id="GyZJKCVi4QYTE4YpRzP0-53" value="" style="edgeStyle=orthogonalEdgeStyle;rounded=0;orthogonalLoop=1;jettySize=auto;html=1;" edge="1" parent="WIyWlLk6GJQsqaUBKTNV-1" source="GyZJKCVi4QYTE4YpRzP0-54" target="GyZJKCVi4QYTE4YpRzP0-60">
          <mxGeometry relative="1" as="geometry" />
        </mxCell>
        <mxCell id="GyZJKCVi4QYTE4YpRzP0-54" value="Choose Approved Request" style="rounded=1;whiteSpace=wrap;html=1;fontSize=12;glass=0;strokeWidth=1;shadow=0;fillColor=#f9f7ed;strokeColor=#36393d;" vertex="1" parent="WIyWlLk6GJQsqaUBKTNV-1">
          <mxGeometry x="340.5" y="390" width="120" height="40" as="geometry" />
        </mxCell>
        <mxCell id="GyZJKCVi4QYTE4YpRzP0-55" value="" style="edgeStyle=orthogonalEdgeStyle;rounded=0;orthogonalLoop=1;jettySize=auto;html=1;" edge="1" parent="WIyWlLk6GJQsqaUBKTNV-1" source="GyZJKCVi4QYTE4YpRzP0-56" target="GyZJKCVi4QYTE4YpRzP0-51">
          <mxGeometry relative="1" as="geometry" />
        </mxCell>
        <mxCell id="GyZJKCVi4QYTE4YpRzP0-56" value="Update Request&lt;div&gt;(Canceled)&lt;/div&gt;" style="shape=parallelogram;perimeter=parallelogramPerimeter;whiteSpace=wrap;html=1;fixedSize=1;fillColor=#e1d5e7;strokeColor=#9673a6;" vertex="1" parent="WIyWlLk6GJQsqaUBKTNV-1">
          <mxGeometry x="341.5" y="660" width="120" height="60" as="geometry" />
        </mxCell>
        <mxCell id="GyZJKCVi4QYTE4YpRzP0-57" value="" style="edgeStyle=orthogonalEdgeStyle;rounded=0;orthogonalLoop=1;jettySize=auto;html=1;" edge="1" parent="WIyWlLk6GJQsqaUBKTNV-1" source="GyZJKCVi4QYTE4YpRzP0-60" target="GyZJKCVi4QYTE4YpRzP0-39">
          <mxGeometry relative="1" as="geometry" />
        </mxCell>
        <mxCell id="GyZJKCVi4QYTE4YpRzP0-58" value="True" style="edgeLabel;html=1;align=center;verticalAlign=middle;resizable=0;points=[];" vertex="1" connectable="0" parent="GyZJKCVi4QYTE4YpRzP0-57">
          <mxGeometry x="-0.3333" y="-2" relative="1" as="geometry">
            <mxPoint x="22" as="offset" />
          </mxGeometry>
        </mxCell>
        <mxCell id="GyZJKCVi4QYTE4YpRzP0-59" value="" style="edgeStyle=orthogonalEdgeStyle;rounded=0;orthogonalLoop=1;jettySize=auto;html=1;" edge="1" parent="WIyWlLk6GJQsqaUBKTNV-1" source="GyZJKCVi4QYTE4YpRzP0-60" target="GyZJKCVi4QYTE4YpRzP0-64">
          <mxGeometry relative="1" as="geometry" />
        </mxCell>
        <mxCell id="GyZJKCVi4QYTE4YpRzP0-60" value="In Future?" style="rhombus;whiteSpace=wrap;html=1;shadow=0;fontFamily=Helvetica;fontSize=12;align=center;strokeWidth=1;spacing=6;spacingTop=-4;fillColor=#dae8fc;strokeColor=#6c8ebf;" vertex="1" parent="WIyWlLk6GJQsqaUBKTNV-1">
          <mxGeometry x="350.5" y="460" width="100" height="80" as="geometry" />
        </mxCell>
        <mxCell id="GyZJKCVi4QYTE4YpRzP0-61" value="" style="edgeStyle=orthogonalEdgeStyle;rounded=0;orthogonalLoop=1;jettySize=auto;html=1;" edge="1" parent="WIyWlLk6GJQsqaUBKTNV-1" source="GyZJKCVi4QYTE4YpRzP0-64" target="GyZJKCVi4QYTE4YpRzP0-66">
          <mxGeometry relative="1" as="geometry" />
        </mxCell>
        <mxCell id="GyZJKCVi4QYTE4YpRzP0-62" value="True&lt;div&gt;&lt;br&gt;&lt;/div&gt;" style="edgeLabel;html=1;align=center;verticalAlign=middle;resizable=0;points=[];" vertex="1" connectable="0" parent="GyZJKCVi4QYTE4YpRzP0-61">
          <mxGeometry x="-0.1549" y="1" relative="1" as="geometry">
            <mxPoint x="19" y="2" as="offset" />
          </mxGeometry>
        </mxCell>
        <mxCell id="GyZJKCVi4QYTE4YpRzP0-63" value="" style="edgeStyle=orthogonalEdgeStyle;rounded=0;orthogonalLoop=1;jettySize=auto;html=1;" edge="1" parent="WIyWlLk6GJQsqaUBKTNV-1" source="GyZJKCVi4QYTE4YpRzP0-64" target="GyZJKCVi4QYTE4YpRzP0-67">
          <mxGeometry relative="1" as="geometry" />
        </mxCell>
        <mxCell id="GyZJKCVi4QYTE4YpRzP0-64" value="Less than&amp;nbsp;&lt;div&gt;5 B Days?&lt;/div&gt;" style="rhombus;whiteSpace=wrap;html=1;fillColor=#dae8fc;strokeColor=#6c8ebf;shadow=0;strokeWidth=1;spacing=6;spacingTop=-4;" vertex="1" parent="WIyWlLk6GJQsqaUBKTNV-1">
          <mxGeometry x="531" y="460" width="99" height="80" as="geometry" />
        </mxCell>
        <mxCell id="GyZJKCVi4QYTE4YpRzP0-65" value="" style="edgeStyle=orthogonalEdgeStyle;rounded=0;orthogonalLoop=1;jettySize=auto;html=1;" edge="1" parent="WIyWlLk6GJQsqaUBKTNV-1" source="GyZJKCVi4QYTE4YpRzP0-66" target="GyZJKCVi4QYTE4YpRzP0-39">
          <mxGeometry relative="1" as="geometry" />
        </mxCell>
        <mxCell id="GyZJKCVi4QYTE4YpRzP0-66" value="Provide Explanation" style="rounded=1;whiteSpace=wrap;html=1;fontSize=12;glass=0;strokeWidth=1;shadow=0;fillColor=#f9f7ed;strokeColor=#36393d;" vertex="1" parent="WIyWlLk6GJQsqaUBKTNV-1">
          <mxGeometry x="521" y="585" width="120" height="40" as="geometry" />
        </mxCell>
        <mxCell id="GyZJKCVi4QYTE4YpRzP0-67" value="Denied" style="ellipse;whiteSpace=wrap;html=1;fillColor=#ffe6cc;strokeColor=#d79b00;" vertex="1" parent="WIyWlLk6GJQsqaUBKTNV-1">
          <mxGeometry x="690" y="480" width="100" height="40" as="geometry" />
        </mxCell>
        <mxCell id="GyZJKCVi4QYTE4YpRzP0-68" value="&lt;div&gt;False&lt;/div&gt;" style="edgeLabel;html=1;align=center;verticalAlign=middle;resizable=0;points=[];" vertex="1" connectable="0" parent="WIyWlLk6GJQsqaUBKTNV-1">
          <mxGeometry x="620.995" y="589.995" as="geometry">
            <mxPoint x="39" y="-78" as="offset" />
          </mxGeometry>
        </mxCell>
        <mxCell id="GyZJKCVi4QYTE4YpRzP0-69" value="&lt;div&gt;False&lt;/div&gt;" style="edgeLabel;html=1;align=center;verticalAlign=middle;resizable=0;points=[];" vertex="1" connectable="0" parent="WIyWlLk6GJQsqaUBKTNV-1">
          <mxGeometry x="460.505" y="589.995" as="geometry">
            <mxPoint x="39" y="-78" as="offset" />
          </mxGeometry>
        </mxCell>
      </root>
    </mxGraphModel>
  </diagram>
</mxfile>
